<svg width="200" height="200" viewBox="0 0 200 200" fill="none" xmlns="http://www.w3.org/2000/svg">
<rect width="200" height="200" rx="10" fill="#01DBFF"/>
<path fill-rule="evenodd" clip-rule="evenodd" d="M95.1396 43.7791C82.7209 46.962 70.5753 52.6367 60.0718 60.1633C55.7549 63.2567 54.9147 64.7109 53.5533 71.4445C52.3411 77.4402 52.2238 79.9631 52.2258 100C52.228 120.011 52.3516 122.703 53.5316 128.444C54.4122 132.73 54.934 134.327 55.9676 135.905C57.0145 137.503 57.738 138.187 60.3333 140.035C65.982 144.055 73.9613 148.567 79.3333 150.779C80.1278 151.106 81.596 151.71 82.5958 152.12C85.4142 153.277 91.5587 155.29 94.8338 156.129C98.9558 157.186 101.061 157.182 105.252 156.108C108.512 155.272 114.531 153.295 117.444 152.102C118.422 151.702 119.872 151.106 120.667 150.78C124.997 148.997 132.983 144.626 137.336 141.656C144.335 136.881 144.901 136.062 146.461 128.444C147.655 122.611 147.776 120.002 147.776 100C147.776 80.0087 147.656 77.4009 146.463 71.5556C145.592 67.2825 145.069 65.6769 144.032 64.0951C142.985 62.4962 142.261 61.8113 139.667 59.9667C129.325 52.6125 117.211 46.9618 105.157 43.8691C101.227 42.8607 98.8078 42.8389 95.1396 43.7791ZM106.667 76.4131C118.418 79.8169 130.424 85.5849 138.84 91.8687C142.854 94.8658 144.088 96.7538 144.081 99.8889C144.074 103.38 142.536 105.586 137.778 108.936C129.004 115.111 117.945 120.318 106.667 123.583C100.484 125.372 98.6311 125.31 91.5556 123.078C84.8805 120.971 80.0198 119.004 74.3333 116.108C67.8362 112.798 61.6236 108.834 58.776 106.182C56.4167 103.984 55.4518 101.363 55.9922 98.6167C56.6207 95.422 58.0158 93.9171 64.1769 89.7882C73.4425 83.5787 84.0062 78.8929 96 75.672C97.7987 75.1891 98.4565 75.1187 100.444 75.196C102.425 75.2731 103.365 75.4569 106.667 76.4131Z" fill="black"/>
</svg>
